<svg aria-hidden="true" style="position: absolute; width: 0; height: 0; overflow: hidden;" version="1.1" xmlns="http://www.w3.org/2000/svg" xmlns:xlink="http://www.w3.org/1999/xlink">
<defs>
<symbol id="menu" viewBox="0 0 48 32">
<path d="M48 3.2h-48v-3.2h48v3.2z"></path>
<path d="M48 17.6h-48v-3.2h48v3.2z"></path>
<path d="M48 32h-48v-3.2h48v3.2z"></path>
</symbol>
<symbol id="logo" viewBox="0 0 36 32">
<path fill="#aa182c" style="fill: var(--color1, #aa182c)" d="M17.738 0l-16 16 16 16 16-16-16-16zM21.494 19.755l-7.511 0.001-0-7.512 7.512 0-0.001 7.511zM17.521 8.181l-7.602 7.602-3.62-3.62 7.602-7.602 3.62 3.62zM17.956 23.819l7.602-7.602 3.62 3.62-7.602 7.602-3.62-3.62zM25.557 15.782l-7.601-7.601 3.62-3.62 7.601 7.601-3.62 3.62zM9.919 16.218l7.601 7.601-3.619 3.619-7.601-7.601 3.619-3.619z"></path>
<path fill="#40474e" style="fill: var(--color2, #40474e)" d="M0 11.907h35.721v8.186h-35.721v-8.186z"></path>
<path fill="#fff" style="fill: var(--color3, #fff)" d="M5.713 17.488c-0.463 0-0.85-0.143-1.16-0.428-0.307-0.288-0.46-0.641-0.46-1.061 0-0.417 0.155-0.769 0.465-1.057s0.704-0.432 1.182-0.432c0.274 0 0.504 0.041 0.691 0.123 0.187 0.079 0.364 0.195 0.533 0.345l-0.415 0.436c-0.135-0.112-0.263-0.193-0.384-0.243-0.117-0.052-0.26-0.078-0.429-0.078-0.265 0-0.484 0.088-0.659 0.263-0.171 0.173-0.257 0.386-0.257 0.641 0 0.252 0.086 0.466 0.257 0.641 0.175 0.175 0.394 0.263 0.659 0.263 0.168 0 0.314-0.027 0.438-0.082s0.254-0.14 0.393-0.255l0.442 0.432c-0.171 0.167-0.358 0.291-0.56 0.37-0.199 0.079-0.444 0.119-0.736 0.119z"></path>
<path fill="#fff" style="fill: var(--color3, #fff)" d="M7.903 17.439v-2.878h2.383v0.563h-1.692v0.584h1.489v0.563h-1.489v0.604h1.715v0.563h-2.405z"></path>
<path fill="#fff" style="fill: var(--color3, #fff)" d="M11.265 17.439v-2.878h1.444c0.4 0 0.707 0.097 0.921 0.292 0.181 0.164 0.271 0.386 0.271 0.666 0 0.441-0.226 0.739-0.677 0.892l0.772 1.028h-0.812l-0.686-0.921h-0.537v0.921h-0.695zM11.96 15.959h0.704c0.168 0 0.299-0.037 0.393-0.111 0.093-0.077 0.14-0.178 0.14-0.304 0-0.134-0.048-0.236-0.144-0.304-0.096-0.071-0.23-0.107-0.402-0.107h-0.691v0.826z"></path>
<path fill="#fff" style="fill: var(--color3, #fff)" d="M14.594 17.439l1.354-2.899h0.641l1.354 2.899h-0.727l-0.289-0.645h-1.336l-0.289 0.645h-0.709zM15.84 16.234h0.839l-0.42-0.933-0.42 0.933z"></path>
<path fill="#fff" style="fill: var(--color3, #fff)" d="M18.769 17.439v-2.878h0.749l0.83 1.217 0.83-1.217h0.749v2.878h-0.691v-1.879l-0.889 1.229h-0.018l-0.88-1.217v1.867h-0.681z"></path>
<path fill="#fff" style="fill: var(--color3, #fff)" d="M23.057 17.439v-2.878h0.695v2.878h-0.695z"></path>
<path fill="#fff" style="fill: var(--color3, #fff)" d="M26.36 17.488c-0.463 0-0.85-0.143-1.16-0.428-0.307-0.288-0.46-0.641-0.46-1.061 0-0.417 0.155-0.769 0.465-1.057s0.704-0.432 1.182-0.432c0.274 0 0.504 0.041 0.691 0.123 0.187 0.079 0.364 0.195 0.532 0.345l-0.415 0.436c-0.135-0.112-0.263-0.193-0.384-0.243-0.117-0.052-0.26-0.078-0.429-0.078-0.265 0-0.484 0.088-0.659 0.263-0.172 0.173-0.257 0.386-0.257 0.641 0 0.252 0.086 0.466 0.257 0.641 0.174 0.175 0.394 0.263 0.659 0.263 0.168 0 0.314-0.027 0.438-0.082s0.254-0.14 0.393-0.255l0.442 0.432c-0.172 0.167-0.358 0.291-0.56 0.37-0.199 0.079-0.444 0.119-0.736 0.119z"></path>
<path fill="#fff" style="fill: var(--color3, #fff)" d="M28.279 17.439l1.354-2.899h0.641l1.354 2.899h-0.727l-0.289-0.645h-1.336l-0.289 0.645h-0.709zM29.525 16.234h0.839l-0.42-0.933-0.42 0.933z"></path>
</symbol>
<symbol id="person" viewBox="0 0 32 32">
<path d="M15.998 0.914c-4.208 0-7.619 3.411-7.619 7.619s3.411 7.619 7.619 7.619c4.208 0 7.619-3.411 7.619-7.619s-3.411-7.619-7.619-7.619zM9.598 8.534c0-3.535 2.865-6.4 6.4-6.4s6.4 2.865 6.4 6.4c0 3.535-2.865 6.4-6.4 6.4s-6.4-2.865-6.4-6.4z"></path>
<path d="M2.895 27.027c0-2.916 1.404-5.069 3.73-6.522 2.353-1.469 5.657-2.219 9.374-2.219s7.021 0.75 9.374 2.219c2.326 1.453 3.73 3.606 3.73 6.522v4.364h1.219v-4.364c0-3.387-1.667-5.909-4.304-7.556-2.611-1.63-6.164-2.404-10.020-2.404s-7.409 0.774-10.020 2.404c-2.637 1.647-4.304 4.169-4.304 7.556v4.364h1.219v-4.364z"></path>
</symbol>
<symbol id="heart" viewBox="0 0 32 32">
<path d="M26.371 3.438c-3.507-1.62-7.613-0.613-10.067 2.321-2.453-2.89-6.613-3.81-10.12-2.189-4.24 2.014-6.040 7.094-4.027 11.341 1.92 4.029 13.36 13.837 13.84 14.275 0.080 0.087 0.213 0.131 0.347 0.131 0.040 0 0.093 0 0.093 0 0.173 0.044 0.347 0 0.48-0.131 0.48-0.438 11.773-10.422 13.653-14.45 1.933-4.291 0.053-9.327-4.2-11.297zM29.571 14.254c-1.533 3.328-10.387 11.429-12.787 13.574-0.093 0.088-0.227 0.131-0.347 0.131-0.133 0-0.267-0.044-0.36-0.131-2.453-2.102-11.387-10.071-12.96-13.399-1.747-3.678-0.173-8.145 3.547-9.852 1.013-0.482 2.107-0.701 3.16-0.701 2.32 0 4.587 1.095 6.040 3.109 0.080 0.131 0.267 0.219 0.44 0.219s0.347-0.088 0.44-0.219c2.053-2.934 5.907-4.029 9.147-2.54 3.72 1.708 5.387 6.087 3.68 9.809z"></path>
</symbol>
<symbol id="weights" viewBox="0 0 32 32">
<path d="M31.956 22.010c0-0.017 0-0.035 0-0.052s0-0.033 0-0.050c0 0 0-0.015 0-0.023l-5.993-19.735c0 0 0 0 0-0.013-0.015-0.046-0.044-0.089-0.073-0.127v-0.012c-0.015-0.036-0.058-0.069-0.087-0.095-0.044-0.027-0.073-0.048-0.116-0.062-0.015-0.002-0.029 0-0.029 0-0.058-0.030-0.131-0.045-0.204-0.045-0.029-0.002-0.044-0.002-0.073 0l-5.6 1.037c-0.291-0.938-0.916-1.739-1.745-2.249-0.844-0.51-1.833-0.695-2.807-0.518-0.96 0.177-1.833 0.702-2.429 1.477-0.611 0.774-0.902 1.743-0.844 2.722l-5.585 1.029-0.044 0.015h-0.029c-0.044 0.016-0.087 0.038-0.131 0.065l-0.015 0.015c-0.029 0.027-0.058 0.059-0.087 0.095-0.029 0.040-0.044 0.083-0.073 0.127 0 0 0 0 0 0.015l-5.993 19.735c0 0 0 0.015 0 0.022 0 0.017 0 0.033 0 0.050s0 0.035 0 0.052c0 0 0 0 0 0.020 0 1.722 0.684 3.375 1.906 4.593s2.865 1.902 4.596 1.902c1.716 0 3.375-0.684 4.596-1.902s1.905-2.87 1.905-4.593c0 0 0-0.015 0-0.020 0-0.017 0-0.035 0-0.052s0-0.033 0-0.050c0 0 0-0.015 0-0.022l-5.905-19.178 5.062-0.934c0.247 0.809 0.756 1.516 1.44 2.019s1.513 0.773 2.356 0.774c0.247 0 0.495-0.021 0.727-0.065 0.96-0.174 1.818-0.692 2.429-1.456 0.596-0.764 0.902-1.723 0.844-2.696l4.8-0.887-5.76 18.948c0 0 0 0.015 0 0.023 0 0.017 0 0.033 0 0.050s0 0.035 0 0.052c0 0 0 0 0 0.020 0 1.723 0.698 3.375 1.905 4.593 1.222 1.218 2.88 1.902 4.596 1.902 1.731 0 3.374-0.684 4.596-1.902s1.906-2.87 1.906-4.593c0 0-0.044-0.015-0.044-0.020zM30.778 21.53h-10.647l5.324-17.517 5.324 17.517zM6.458 7.511l5.324 17.516h-10.647l5.324-17.516zM6.458 31.023c-1.367 0-2.691-0.512-3.694-1.437-1.018-0.924-1.644-2.194-1.774-3.559h10.953c-0.131 1.366-0.756 2.635-1.774 3.559-1.004 0.924-2.327 1.437-3.709 1.437zM16.495 6.994c-0.524 0.095-1.047 0.050-1.556-0.13-0.233-0.088-0.465-0.208-0.684-0.355-0.407-0.284-0.742-0.666-0.975-1.112-0.131-0.258-0.218-0.533-0.276-0.817-0.087-0.529-0.043-1.075 0.146-1.579 0.16-0.428 0.422-0.814 0.756-1.129 0.422-0.403 0.945-0.673 1.513-0.777 0.189-0.034 0.364-0.050 0.538-0.050 0.291 0 0.582 0.042 0.858 0.125 0.305 0.092 0.582 0.229 0.843 0.407 0.567 0.387 0.975 0.953 1.178 1.606 0.189 0.652 0.16 1.352-0.102 1.984-0.16 0.417-0.422 0.79-0.756 1.094-0.407 0.378-0.931 0.631-1.484 0.732zM25.455 27.526c-1.367 0-2.691-0.512-3.709-1.437-1.004-0.924-1.644-2.194-1.76-3.559h10.953c-0.131 1.365-0.756 2.635-1.775 3.559-1.004 0.924-2.327 1.437-3.709 1.437z"></path>
</symbol>
<symbol id="search" viewBox="0 0 32 32">
<path d="M23.167 22.222c3.961-4.451 3.808-11.274-0.459-15.541-4.426-4.426-11.602-4.426-16.028 0s-4.426 11.602 0 16.028c4.268 4.268 11.094 4.42 15.544 0.457l5.672 5.672 0.943-0.943-5.672-5.672zM21.765 7.624c3.905 3.905 3.905 10.237 0 14.142s-10.237 3.905-14.142 0c-3.905-3.905-3.905-10.237 0-14.142s10.237-3.905 14.142 0z"></path>
</symbol>
<symbol id="white-logo" viewBox="0 0 35 32">
<path fill="#fff" style="fill: var(--color3, #fff)" d="M17.563-0l-15.879 15.879 15.879 15.879 15.879-15.879-15.879-15.879zM21.29 19.606l-7.454 0.001-0-7.455 7.455 0-0.001 7.454zM17.348 8.119l-7.544 7.544-3.593-3.593 7.544-7.544 3.593 3.593zM17.779 23.639l7.544-7.544 3.593 3.592-7.544 7.544-3.592-3.592zM25.322 15.663l-7.544-7.544 3.593-3.593 7.544 7.544-3.593 3.592zM9.803 16.095l7.544 7.544-3.592 3.592-7.544-7.544 3.592-3.592z"></path>
<path fill="#40474e" style="fill: var(--color2, #40474e)" d="M0 12.070h35.368v7.579h-35.368v-7.579z"></path>
<path fill="#fff" style="fill: var(--color3, #fff)" d="M5.52 17.457c-0.461 0-0.846-0.156-1.154-0.467-0.305-0.314-0.458-0.701-0.458-1.159 0-0.455 0.154-0.84 0.463-1.154s0.701-0.472 1.177-0.472c0.272 0 0.502 0.045 0.687 0.135 0.186 0.087 0.362 0.213 0.53 0.377l-0.413 0.476c-0.135-0.123-0.262-0.211-0.382-0.265-0.117-0.057-0.259-0.085-0.427-0.085-0.263 0-0.482 0.096-0.656 0.287-0.171 0.189-0.256 0.422-0.256 0.701 0 0.275 0.085 0.509 0.256 0.701 0.174 0.192 0.392 0.287 0.656 0.287 0.168 0 0.313-0.030 0.436-0.090s0.253-0.153 0.391-0.278l0.44 0.472c-0.171 0.183-0.356 0.317-0.557 0.404-0.198 0.087-0.442 0.13-0.732 0.13zM7.7 17.404v-3.144h2.371v0.615h-1.684v0.638h1.482v0.615h-1.482v0.66h1.707v0.615h-2.394zM11.045 17.404v-3.144h1.437c0.398 0 0.704 0.106 0.916 0.319 0.18 0.18 0.269 0.422 0.269 0.728 0 0.482-0.225 0.807-0.674 0.975l0.768 1.123h-0.808l-0.683-1.006h-0.534v1.006h-0.692zM11.737 15.787h0.701c0.168 0 0.298-0.040 0.391-0.121 0.093-0.084 0.139-0.195 0.139-0.332 0-0.147-0.048-0.258-0.144-0.332-0.096-0.078-0.229-0.117-0.4-0.117h-0.687v0.903zM14.358 17.404l1.347-3.166h0.638l1.347 3.166h-0.723l-0.287-0.705h-1.329l-0.287 0.705h-0.705zM15.598 16.088h0.835l-0.418-1.020-0.418 1.020zM18.513 17.404v-3.144h0.746l0.826 1.329 0.826-1.329h0.746v3.144h-0.687v-2.053l-0.885 1.343h-0.018l-0.876-1.329v2.039h-0.678zM22.78 17.404v-3.144h0.692v3.144h-0.692zM26.067 17.457c-0.461 0-0.846-0.156-1.154-0.467-0.305-0.314-0.458-0.701-0.458-1.159 0-0.455 0.154-0.84 0.463-1.154s0.701-0.472 1.177-0.472c0.272 0 0.502 0.045 0.687 0.135 0.186 0.087 0.362 0.213 0.53 0.377l-0.413 0.476c-0.135-0.123-0.262-0.211-0.382-0.265-0.117-0.057-0.259-0.085-0.427-0.085-0.263 0-0.482 0.096-0.656 0.287-0.171 0.189-0.256 0.422-0.256 0.701 0 0.275 0.085 0.509 0.256 0.701 0.174 0.192 0.392 0.287 0.656 0.287 0.168 0 0.313-0.030 0.436-0.090s0.253-0.153 0.391-0.278l0.44 0.472c-0.171 0.183-0.356 0.317-0.557 0.404-0.198 0.087-0.442 0.13-0.732 0.13zM27.978 17.404l1.347-3.166h0.638l1.347 3.166h-0.723l-0.287-0.705h-1.329l-0.287 0.705h-0.705zM29.217 16.088h0.835l-0.418-1.020-0.418 1.020z"></path>
</symbol>
<symbol id="youtube" viewBox="0 0 32 32">
<path fill="none" stroke="#fff" style="stroke: var(--color2, #fff)" stroke-linejoin="miter" stroke-linecap="butt" stroke-miterlimit="4" stroke-width="1" d="M30.858 8.448l0 0.002c0.327 1.193 0.49 3.073 0.57 4.693 0.039 0.802 0.057 1.527 0.065 2.051 0.004 0.262 0.006 0.474 0.006 0.62 0 0.073 0 0.129 0 0.168l-0 0.043v0.020l-0 0.011-0 0.043c-0 0.038-0 0.094-0.001 0.167-0.001 0.145-0.004 0.356-0.009 0.617-0.010 0.522-0.031 1.244-0.072 2.043-0.082 1.612-0.246 3.488-0.56 4.684-0.323 1.198-1.268 2.143-2.466 2.466-0.575 0.151-1.626 0.273-2.92 0.366-1.281 0.092-2.76 0.154-4.165 0.195s-2.732 0.062-3.708 0.072c-0.488 0.005-0.888 0.008-1.166 0.009-0.139 0.001-0.247 0.001-0.321 0.001l-0.14 0-0.083-0c-0.073-0-0.182-0-0.32-0.001-0.277-0.001-0.676-0.004-1.163-0.009-0.974-0.011-2.298-0.032-3.701-0.075s-2.881-0.107-4.163-0.202c-1.296-0.097-2.35-0.223-2.93-0.38l-0.001-0c-1.199-0.323-2.145-1.269-2.468-2.467-0.314-1.182-0.478-3.058-0.56-4.674-0.041-0.801-0.061-1.525-0.072-2.049-0.005-0.262-0.008-0.474-0.009-0.62-0.001-0.073-0.001-0.13-0.001-0.168l-0-0.043-0-0.011v-0.007l0-0.011 0-0.043c0-0.038 0-0.094 0.001-0.167 0.001-0.145 0.004-0.356 0.009-0.617 0.010-0.522 0.031-1.244 0.072-2.043 0.082-1.612 0.246-3.488 0.56-4.684 0.323-1.199 1.296-2.17 2.467-2.492 0.575-0.151 1.626-0.272 2.919-0.365 1.281-0.092 2.76-0.154 4.165-0.195s2.732-0.062 3.708-0.072c0.488-0.005 0.888-0.008 1.166-0.009 0.139-0.001 0.247-0.001 0.321-0.001l0.14-0 0.084 0c0.073 0 0.182 0 0.321 0.001 0.278 0.001 0.678 0.004 1.166 0.009 0.976 0.011 2.303 0.032 3.707 0.075s2.884 0.107 4.165 0.202c1.295 0.097 2.345 0.223 2.918 0.38l0.002 0.001c1.199 0.323 2.145 1.269 2.468 2.468z"></path>
<path fill="none" stroke="#fff" style="stroke: var(--color2, #fff)" stroke-linejoin="miter" stroke-linecap="butt" stroke-miterlimit="4" stroke-width="1" d="M13.31 12.083l6.828 3.932-6.828 3.932v-7.865z"></path>
</symbol>
<symbol id="pinterest" viewBox="0 0 32 32">
<path fill="#fff" style="fill: var(--color2, #fff)" d="M9.714 13.58c0-2.797 2.202-6.151 6.568-6.151 3.509 0 5.819 2.72 5.818 5.641 0 3.863-2.005 6.748-4.959 6.748-0.993 0-1.926-0.575-2.245-1.227 0 0-0.534 2.268-0.646 2.706-0.378 1.472-1.456 2.944-1.638 3.194-0.009 0.013-0.016 0.022-0.021 0.028-0.064 0.088-0.204 0.060-0.218-0.056-0.001-0.010-0.003-0.026-0.006-0.045-0.049-0.356-0.299-2.188 0.034-3.696 0.176-0.8 1.182-5.366 1.182-5.366s-0.293-0.629-0.293-1.558c0-1.459 0.789-2.549 1.772-2.549 0.836 0 1.239 0.672 1.239 1.478 0 0.575-0.218 1.331-0.448 2.128-0.13 0.451-0.264 0.915-0.364 1.366-0.231 1.045 0.489 1.897 1.45 1.897 1.741 0 2.914-2.396 2.914-5.235 0-2.158-1.356-3.774-3.824-3.774-2.787 0-4.525 2.228-4.525 4.716 0 0.858 0.237 1.463 0.607 1.931 0.17 0.215 0.194 0.302 0.132 0.549-0.024 0.096-0.063 0.262-0.1 0.423-0.034 0.145-0.067 0.286-0.087 0.368-0.061 0.25-0.25 0.338-0.461 0.246-1.283-0.562-1.882-2.068-1.882-3.762z"></path>
<path fill="#fff" style="fill: var(--color2, #fff)" d="M0.571 6.286c0-3.156 2.558-5.714 5.714-5.714h19.429c3.156 0 5.714 2.558 5.714 5.714v19.429c0 3.156-2.558 5.714-5.714 5.714h-19.429c-3.156 0-5.714-2.558-5.714-5.714v-19.429zM6.286 1.714c-2.525 0-4.571 2.047-4.571 4.571v19.429c0 2.525 2.047 4.571 4.571 4.571h19.429c2.525 0 4.571-2.047 4.571-4.571v-19.429c0-2.525-2.047-4.571-4.571-4.571h-19.429z"></path>
</symbol>
<symbol id="arrow-right" viewBox="0 0 108 32">
<path d="M106.834 17.414c0.781-0.781 0.781-2.047 0-2.828l-12.728-12.728c-0.781-0.781-2.048-0.781-2.828 0s-0.781 2.047 0 2.828l11.314 11.314-11.314 11.314c-0.781 0.781-0.781 2.047 0 2.828s2.047 0.781 2.828 0l12.728-12.728zM1.144 18h104.276v-4h-104.276v4z"></path>
</symbol>
<symbol id="instagram" viewBox="0 0 32 32">
<path fill="none" stroke="#fff" style="stroke: var(--color2, #fff)" stroke-linejoin="miter" stroke-linecap="butt" stroke-miterlimit="4" stroke-width="1.1429" d="M6.476 1.334h19.048c2.84 0 5.143 2.303 5.143 5.143v19.048c0 2.84-2.303 5.143-5.143 5.143h-19.048c-2.84 0-5.143-2.303-5.143-5.143v-19.048c0-2.84 2.303-5.143 5.143-5.143z"></path>

<path fill="none" stroke="#fff" style="stroke: var(--color2, #fff)" stroke-linejoin="miter" stroke-linecap="butt" stroke-miterlimit="4" stroke-width="1.1429" d="M9.46 16.508c0 3.892 3.155 7.048 7.048 7.048s7.048-3.155 7.048-7.048c0-3.892-3.155-7.048-7.048-7.048s-7.048 3.155-7.048 7.048z"></path>
<path fill="none" stroke="#fff" style="stroke: var(--color2, #fff)" stroke-linejoin="miter" stroke-linecap="butt" stroke-miterlimit="4" stroke-width="1.1429" d="M26.603 7.874c0-0.806-0.654-1.46-1.46-1.46s-1.46 0.654-1.46 1.46c0 0.806 0.654 1.46 1.46 1.46s1.46-0.654 1.46-1.46z"></path>
</symbol>
<symbol id="facebook" viewBox="0 0 32 32">
<path fill="none" stroke="#fff" style="stroke: var(--color2, #fff)" stroke-linejoin="miter" stroke-linecap="butt" stroke-miterlimit="4" stroke-width="1.1429" d="M24.988 14.536h-4.845v-2.488h5.417v-6.5h-5.988c-3.27 0-5.929 2.659-5.929 5.929v3.060h-3.571v6.5h3.571v9.631h-8.417c-2.146 0-3.893-1.747-3.893-3.893v-21.548c0-2.146 1.747-3.893 3.893-3.893h21.548c2.146 0 3.893 1.747 3.893 3.893v21.548c0 2.146-1.747 3.893-3.893 3.893h-6.631v-9.631h4.436l0.080-0.477 1.004-6.023h-0.674z"></path>
</symbol>
<symbol id="download" viewBox="0 0 41 32">
<path fill="#f5f2f1" style="fill: var(--color1, #f5f2f1)" d="M3.287 16.94v7.529c0 2.599 2.107 4.706 4.706 4.706h26.353c2.599 0 4.706-2.107 4.706-4.706v-7.529h1.882v7.529c0 3.639-2.95 6.588-6.588 6.588h-26.353c-3.639 0-6.588-2.95-6.588-6.588v-7.529h1.882z"></path>
<path fill="#f5f2f1" style="fill: var(--color1, #f5f2f1)" d="M27.825 17.263l-5.99 5.99c-0.368 0.367-0.963 0.367-1.331 0l-5.99-5.99c-0.368-0.368-0.368-0.963 0-1.331s0.963-0.368 1.331 0l4.383 4.383v-20.316h1.882v20.316l4.383-4.383c0.367-0.368 0.963-0.368 1.331 0s0.367 0.963 0 1.331z"></path>
</symbol>
<symbol id="artjoker" viewBox="0 0 102 32">
<path fill="#fff" style="fill: var(--color1, #fff)" d="M102 32v-32h-102v32h102zM64.287 17.457v4.643h-3.549v-18.1h3.549v9.591l2.855-3.214h4.551l-4.989 5.171 5.992 6.551h-4.396l-4.013-4.643zM93.357 13.665c-0.498-0.234-1.105-0.351-1.825-0.351-1.989 0-2.983 1.557-2.983 4.669v4.093h-3.575v-11.724h3.575v2.838c0.291-1.022 0.758-1.791 1.401-2.311 0.642-0.518 1.307-0.777 1.992-0.777 0.788 0 1.475 0.142 2.058 0.425l-0.643 3.138zM75.062 17.383c0.086 0.635 0.424 1.122 1.015 1.454 0.592 0.336 1.239 0.503 1.943 0.503 1.165 0 2.039-0.367 2.623-1.105l2.597 1.733c-1.098 1.591-2.924 2.383-5.478 2.383-1.765 0-3.251-0.573-4.461-1.719-1.209-1.146-1.814-2.623-1.814-4.429 0-1.81 0.605-3.274 1.814-4.395 1.21-1.12 2.696-1.68 4.461-1.68 1.749 0 3.21 0.571 4.386 1.717 1.174 1.146 1.761 2.634 1.761 4.456 0 0.32-0.017 0.678-0.052 1.082h-8.794zM77.786 13.188c0.584 0 1.128 0.173 1.634 0.515 0.504 0.342 0.802 0.841 0.887 1.494h-5.195c0.137-0.669 0.47-1.171 1.002-1.507 0.532-0.333 1.089-0.502 1.672-0.502zM57.382 20.607c-1.21 1.129-2.688 1.696-4.437 1.696s-3.224-0.567-4.423-1.696c-1.2-1.13-1.801-2.598-1.801-4.404 0-1.81 0.601-3.273 1.801-4.396 1.2-1.118 2.675-1.679 4.423-1.679s3.227 0.561 4.437 1.679c1.206 1.123 1.812 2.586 1.812 4.396 0 1.806-0.606 3.274-1.812 4.404zM51.028 14.292c0.523-0.501 1.162-0.753 1.916-0.753s1.398 0.252 1.929 0.753c0.531 0.503 0.797 1.138 0.797 1.909 0 0.802-0.262 1.453-0.784 1.945-0.523 0.493-1.17 0.739-1.942 0.739-0.755 0-1.393-0.246-1.916-0.739s-0.784-1.143-0.784-1.945c0-0.771 0.261-1.406 0.784-1.909zM44.946 7.49c-0.43 0.403-0.952 0.602-1.569 0.602s-1.145-0.199-1.581-0.602c-0.438-0.401-0.656-0.886-0.656-1.456 0-0.567 0.218-1.049 0.656-1.444 0.436-0.39 0.965-0.589 1.581-0.589s1.139 0.199 1.569 0.589c0.428 0.395 0.643 0.877 0.643 1.444 0 0.57-0.215 1.055-0.643 1.456zM45.178 22.905c0 1.64-0.353 2.899-1.055 3.776-0.703 0.88-1.87 1.319-3.497 1.319h-2.187v-3.162h1.57c1.079 0 1.602-0.619 1.568-1.858v-12.602h3.601v12.528zM36.87 22.101h-3.549v-16.216h3.549v4.493h2.744v3.025h-2.744v8.698zM31.412 13.692c-0.497-0.234-1.105-0.351-1.825-0.351-1.989 0-2.983 1.557-2.983 4.668v4.093h-3.574v-11.724h3.574v2.837c0.29-1.022 0.759-1.791 1.401-2.31 0.643-0.518 1.307-0.777 1.993-0.777 0.789 0 1.476 0.141 2.058 0.425l-0.644 3.138zM21.168 22.1h-3.55v-1.331c-0.343 0.504-0.87 0.888-1.582 1.156-0.711 0.268-1.349 0.403-1.914 0.403-1.613 0-3.036-0.564-4.271-1.697-1.234-1.129-1.851-2.599-1.851-4.404 0-1.806 0.618-3.275 1.851-4.405 1.235-1.132 2.658-1.695 4.271-1.695 0.565 0 1.185 0.116 1.863 0.351 0.676 0.234 1.221 0.635 1.633 1.206v-1.306h3.55v11.721zM14.712 13.44c-0.788 0-1.486 0.264-2.095 0.79-0.609 0.528-0.914 1.192-0.914 1.996 0 0.803 0.305 1.469 0.914 1.994 0.609 0.528 1.307 0.792 2.095 0.792 0.772 0 1.449-0.256 2.033-0.767 0.581-0.509 0.874-1.181 0.874-2.019 0-0.837-0.292-1.511-0.874-2.021-0.584-0.511-1.261-0.766-2.033-0.766z"></path>
</symbol>
<symbol id="chat" viewBox="0 0 41 32">
<path fill="#6a737a" style="fill: var(--color1, #6a737a)" d="M34.69 32l-2.598-4.457h-17.398c-1.555 0-2.811-1.384-2.811-3.097v-14.264c0-1.713 1.256-3.097 2.811-3.097h23.638c1.554 0 2.811 1.384 2.811 3.097v14.264c0 1.713-1.256 3.097-2.811 3.097h-1.065l-2.577 4.457zM14.694 8.751c-0.724 0-1.32 0.657-1.32 1.455v14.264c0 0.798 0.596 1.454 1.32 1.454h18.208l1.789 3.050 1.768-3.050h1.874c0.724 0 1.32-0.657 1.32-1.454v-14.287c0-0.798-0.596-1.455-1.32-1.455l-23.638 0.023zM34.605 15.367c0-0.446-0.341-0.821-0.745-0.821h-14.673c-0.405 0-0.745 0.375-0.745 0.821s0.341 0.821 0.745 0.821h14.673c0.405 0 0.745-0.375 0.745-0.821zM32.156 19.707c0-0.446-0.341-0.821-0.745-0.821h-12.245c-0.405 0-0.745 0.375-0.745 0.821s0.341 0.821 0.745 0.821h12.245c0.405 0 0.745-0.352 0.745-0.821zM10.839 18.815h-2.598l-1.789 3.050-1.768-3.050h-1.874c-0.724 0-1.32-0.657-1.32-1.455v-14.264c0-0.798 0.596-1.455 1.32-1.455h23.638c0.724 0 1.32 0.657 1.32 1.455v2.886h1.491v-2.886c0-1.713-1.256-3.097-2.811-3.097h-23.638c-1.555 0-2.811 1.384-2.811 3.097v14.264c0 1.713 1.256 3.097 2.811 3.097h1.065l2.598 4.457 2.598-4.457h1.789v-1.642h-0.021z"></path>
</symbol>
<symbol id="eye" viewBox="0 0 41 32">
<path fill="#6a737a" style="fill: var(--color1, #6a737a)" d="M20.279 30.122c-7.072 0-13.835-4.467-20.109-13.284-0.107-0.15-0.166-0.33-0.17-0.515s0.049-0.367 0.15-0.521c0.342-0.523 8.517-12.82 20.305-13.102 7.222-0.194 14.119 4.223 20.515 13.067 0.108 0.149 0.169 0.329 0.174 0.514s-0.046 0.368-0.146 0.523c-0.342 0.532-8.52 13.032-20.317 13.314-0.134 0.003-0.268 0.005-0.401 0.005zM1.998 16.297c5.913 8.114 12.193 12.154 18.632 12.001 9.558-0.223 16.856-9.65 18.515-11.978-5.914-7.985-12.2-11.939-18.64-11.804-9.551 0.224-16.842 9.482-18.507 11.78z"></path>
<path fill="#6a737a" style="fill: var(--color1, #6a737a)" d="M20.572 23.883c-1.454 0-2.876-0.438-4.085-1.26s-2.151-1.989-2.708-3.354-0.702-2.869-0.418-4.319c0.284-1.45 0.984-2.782 2.012-3.827s2.338-1.757 3.764-2.046c1.426-0.288 2.904-0.14 4.248 0.425s2.492 1.524 3.299 2.753c0.808 1.229 1.239 2.674 1.239 4.153-0.002 1.982-0.778 3.882-2.156 5.283s-3.247 2.19-5.196 2.192zM20.572 10.752c-1.1 0-2.176 0.332-3.091 0.953s-1.628 1.505-2.049 2.538c-0.421 1.033-0.531 2.171-0.317 3.268s0.744 2.105 1.522 2.896c0.778 0.791 1.769 1.33 2.848 1.548s2.198 0.106 3.214-0.322c1.016-0.428 1.885-1.153 2.497-2.083s0.938-2.024 0.938-3.142c-0.002-1.499-0.588-2.937-1.631-3.997s-2.457-1.657-3.932-1.658z"></path>
</symbol>
<symbol id="mouse" viewBox="0 0 18 32">
<path fill="none" stroke="#fff" style="stroke: var(--color1, #fff)" stroke-linejoin="miter" stroke-linecap="butt" stroke-miterlimit="4" stroke-width="0.6809" d="M8.851 0.34c4.7 0 8.511 3.81 8.511 8.511v14.298c0 4.7-3.81 8.511-8.511 8.511s-8.511-3.81-8.511-8.511v-14.298c0-4.7 3.81-8.511 8.511-8.511z"></path>
<path fill="#fff" style="fill: var(--color1, #fff)" d="M9.191 7.489c0.564 0 1.021 0.457 1.021 1.021v2.723c0 0.564-0.457 1.021-1.021 1.021s-1.021-0.457-1.021-1.021v-2.723c0-0.564 0.457-1.021 1.021-1.021z"></path>
</symbol>
<symbol id="arrow-left" viewBox="0 0 108 32">
<path fill="#40474e" style="fill: var(--color1, #40474e)" d="M2.166 17.414c-0.781-0.781-0.781-2.047 0-2.828l12.728-12.728c0.781-0.781 2.047-0.781 2.828 0s0.781 2.047 0 2.828l-11.314 11.314 11.314 11.314c0.781 0.781 0.781 2.047 0 2.828s-2.047 0.781-2.828 0l-12.728-12.728zM107.856 18h-104.276v-4h104.276v4z"></path>
</symbol>
</defs>
</svg>
