<svg aria-hidden="true" style="position:absolute;width:0;height:0" xmlns="http://www.w3.org/2000/svg" overflow="hidden"><defs><symbol id="menu" viewBox="0 0 48 32"><path d="M48 3.2H0V0h48v3.2zm0 14.4H0v-3.2h48v3.2zM48 32H0v-3.2h48V32z"/></symbol><symbol id="logo" viewBox="0 0 36 32"><path fill="var(--color1, #aa182c)" d="M17.738 0l-16 16 16 16 16-16-16-16zm3.756 19.755l-7.511.001v-7.512h7.512l-.001 7.511zM17.521 8.181l-7.602 7.602-3.62-3.62 7.602-7.602 3.62 3.62zm.435 15.638l7.602-7.602 3.62 3.62-7.602 7.602-3.62-3.62zm7.601-8.037l-7.601-7.601 3.62-3.62 7.601 7.601-3.62 3.62zm-15.638.436l7.601 7.601-3.619 3.619L6.3 19.837l3.619-3.619z"/><path fill="var(--color2, #40474e)" d="M0 11.907h35.721v8.186H0v-8.186z"/><path fill="var(--color3, #fff)" d="M5.713 17.488c-.463 0-.85-.143-1.16-.428a1.397 1.397 0 01-.46-1.061c0-.417.155-.769.465-1.057s.704-.432 1.182-.432c.274 0 .504.041.691.123.187.079.364.195.533.345l-.415.436a1.533 1.533 0 00-.384-.243 1.054 1.054 0 00-.429-.078.893.893 0 00-.659.263.875.875 0 00-.257.641c0 .252.086.466.257.641a.893.893 0 00.659.263c.168 0 .314-.027.438-.082s.254-.14.393-.255l.442.432a1.675 1.675 0 01-.56.37 2 2 0 01-.736.119zm2.19-.049v-2.878h2.383v.563H8.594v.584h1.489v.563H8.594v.604h1.715v.563H7.904zm3.362 0v-2.878h1.444c.4 0 .707.097.921.292.181.164.271.386.271.666 0 .441-.226.739-.677.892l.772 1.028h-.812l-.686-.921h-.537v.921h-.695zm.695-1.48h.704c.168 0 .299-.037.393-.111a.375.375 0 00.14-.304c0-.134-.048-.236-.144-.304-.096-.071-.23-.107-.402-.107h-.691v.826zm2.634 1.48l1.354-2.899h.641l1.354 2.899h-.727l-.289-.645h-1.336l-.289.645h-.709zm1.246-1.205h.839l-.42-.933-.42.933zm2.929 1.205v-2.878h.749l.83 1.217.83-1.217h.749v2.878h-.691V15.56l-.889 1.229h-.018l-.88-1.217v1.867h-.681zm4.288 0v-2.878h.695v2.878h-.695zm3.303.049c-.463 0-.85-.143-1.16-.428a1.397 1.397 0 01-.46-1.061c0-.417.155-.769.465-1.057s.704-.432 1.182-.432c.274 0 .504.041.691.123.187.079.364.195.532.345l-.415.436a1.533 1.533 0 00-.384-.243 1.054 1.054 0 00-.429-.078.893.893 0 00-.659.263.872.872 0 00-.257.641.892.892 0 00.916.904c.168 0 .314-.027.438-.082s.254-.14.393-.255l.442.432a1.685 1.685 0 01-.56.37 2 2 0 01-.736.119zm1.919-.049l1.354-2.899h.641l1.354 2.899h-.727l-.289-.645h-1.336l-.289.645h-.709zm1.246-1.205h.839l-.42-.933-.42.933z"/></symbol><symbol id="person" viewBox="0 0 32 32"><path d="M15.998.914a7.619 7.619 0 100 15.238 7.619 7.619 0 000-15.238zm-6.4 7.62c0-3.535 2.865-6.4 6.4-6.4s6.4 2.865 6.4 6.4-2.865 6.4-6.4 6.4-6.4-2.865-6.4-6.4zM2.895 27.027c0-2.916 1.404-5.069 3.73-6.522 2.353-1.469 5.657-2.219 9.374-2.219s7.021.75 9.374 2.219c2.326 1.453 3.73 3.606 3.73 6.522v4.364h1.219v-4.364c0-3.387-1.667-5.909-4.304-7.556-2.611-1.63-6.164-2.404-10.02-2.404s-7.409.774-10.02 2.404c-2.637 1.647-4.304 4.169-4.304 7.556v4.364h1.219v-4.364z"/></symbol><symbol id="heart" viewBox="0 0 32 32"><path d="M26.371 3.438c-3.507-1.62-7.613-.613-10.067 2.321-2.453-2.89-6.613-3.81-10.12-2.189-4.24 2.014-6.04 7.094-4.027 11.341 1.92 4.029 13.36 13.837 13.84 14.275.08.087.213.131.347.131h.093c.173.044.347 0 .48-.131.48-.438 11.773-10.422 13.653-14.45 1.933-4.291.053-9.327-4.2-11.297zm3.2 10.816c-1.533 3.328-10.387 11.429-12.787 13.574a.516.516 0 01-.347.131.53.53 0 01-.36-.131C13.624 25.726 4.69 17.757 3.117 14.429c-1.747-3.678-.173-8.145 3.547-9.852a7.44 7.44 0 019.2 2.408c.08.131.267.219.44.219s.347-.088.44-.219c2.053-2.934 5.907-4.029 9.147-2.54 3.72 1.708 5.387 6.087 3.68 9.809z"/></symbol><symbol id="weights" viewBox="0 0 32 32"><path d="M31.956 22.01v-.125L25.963 2.15v-.013a.447.447 0 00-.073-.127v-.012c-.015-.036-.058-.069-.087-.095-.044-.027-.073-.048-.116-.062-.015-.002-.029 0-.029 0a.453.453 0 00-.204-.045.445.445 0 00-.073 0l-5.6 1.037A4.058 4.058 0 0018.036.584a4.015 4.015 0 00-2.807-.518A3.98 3.98 0 0012.8 1.543a4 4 0 00-.844 2.722L6.371 5.294l-.044.015h-.029a.725.725 0 00-.131.065l-.015.015a.91.91 0 00-.087.095c-.029.04-.044.083-.073.127v.015L-.001 25.361v.144c0 1.722.684 3.375 1.906 4.593S4.77 32 6.501 32c1.716 0 3.375-.684 4.596-1.902s1.905-2.87 1.905-4.593v-.144L7.097 6.183l5.062-.934a3.943 3.943 0 001.44 2.019 3.992 3.992 0 003.083.709 4.028 4.028 0 002.429-1.456 4.003 4.003 0 00.844-2.696l4.8-.887-5.76 18.948v.145c0 1.723.698 3.375 1.905 4.593a6.521 6.521 0 004.596 1.902c1.731 0 3.374-.684 4.596-1.902s1.906-2.87 1.906-4.593c0 0-.044-.015-.044-.02zm-1.178-.48H20.131l5.324-17.517 5.324 17.517zM6.458 7.511l5.324 17.516H1.135L6.459 7.511zm0 23.512a5.455 5.455 0 01-3.694-1.437A5.502 5.502 0 01.99 26.027h10.953a5.505 5.505 0 01-1.774 3.559 5.47 5.47 0 01-3.709 1.437zM16.495 6.994a3.004 3.004 0 01-1.556-.13 3.376 3.376 0 01-.684-.355 3.113 3.113 0 01-.975-1.112 3.214 3.214 0 01-.276-.817 3.076 3.076 0 01.146-1.579c.16-.428.422-.814.756-1.129a2.961 2.961 0 012.909-.702 3.043 3.043 0 012.021 2.013c.189.652.16 1.352-.102 1.984a2.975 2.975 0 01-2.24 1.826zm8.96 20.532a5.52 5.52 0 01-3.709-1.437 5.486 5.486 0 01-1.76-3.559h10.953a5.504 5.504 0 01-1.775 3.559 5.47 5.47 0 01-3.709 1.437z"/></symbol><symbol id="search" viewBox="0 0 32 32"><path d="M23.167 22.222c3.961-4.451 3.808-11.274-.459-15.541-4.426-4.426-11.602-4.426-16.028 0s-4.426 11.602 0 16.028c4.268 4.268 11.094 4.42 15.544.457l5.672 5.672.943-.943-5.672-5.672zM21.765 7.624c3.905 3.905 3.905 10.237 0 14.142s-10.237 3.905-14.142 0c-3.905-3.905-3.905-10.237 0-14.142s10.237-3.905 14.142 0z"/></symbol><symbol id="white-logo" viewBox="0 0 35 32"><path fill="var(--color3, #fff)" d="M17.563 0L1.684 15.879l15.879 15.879 15.879-15.879L17.563 0zm3.727 19.606l-7.454.001v-7.455h7.455l-.001 7.454zM17.348 8.119l-7.544 7.544-3.593-3.593 7.544-7.544 3.593 3.593zm.431 15.52l7.544-7.544 3.593 3.592-7.544 7.544-3.592-3.592zm7.543-7.976l-7.544-7.544 3.593-3.593 7.544 7.544-3.593 3.592zm-15.519.432l7.544 7.544-3.592 3.592-7.544-7.544 3.592-3.592z"/><path fill="var(--color2, #40474e)" d="M0 12.07h35.368v7.579H0V12.07z"/><path fill="var(--color3, #fff)" d="M5.52 17.457c-.461 0-.846-.156-1.154-.467a1.6 1.6 0 01-.458-1.159c0-.455.154-.84.463-1.154s.701-.472 1.177-.472c.272 0 .502.045.687.135.186.087.362.213.53.377l-.413.476a1.495 1.495 0 00-.382-.265.968.968 0 00-.427-.085.85.85 0 00-.656.287 1.005 1.005 0 00-.256.701c0 .275.085.509.256.701a.846.846 0 00.656.287c.168 0 .313-.03.436-.09s.253-.153.391-.278l.44.472a1.672 1.672 0 01-.557.404 1.82 1.82 0 01-.732.13zm2.18-.053V14.26h2.371v.615H8.387v.638h1.482v.615H8.387v.66h1.707v.615H7.7zm3.345 0V14.26h1.437c.398 0 .704.106.916.319.18.18.269.422.269.728 0 .482-.225.807-.674.975l.768 1.123h-.808l-.683-1.006h-.534v1.006h-.692zm.692-1.617h.701c.168 0 .298-.04.391-.121a.426.426 0 00.139-.332c0-.147-.048-.258-.144-.332-.096-.078-.229-.117-.4-.117h-.687v.903zm2.621 1.617l1.347-3.166h.638l1.347 3.166h-.723l-.287-.705h-1.329l-.287.705h-.705zm1.24-1.316h.835l-.418-1.02-.418 1.02zm2.915 1.316V14.26h.746l.826 1.329.826-1.329h.746v3.144h-.687v-2.053l-.885 1.343h-.018l-.876-1.329v2.039h-.678zm4.267 0V14.26h.692v3.144h-.692zm3.287.053c-.461 0-.846-.156-1.154-.467a1.6 1.6 0 01-.458-1.159c0-.455.154-.84.463-1.154s.701-.472 1.177-.472c.272 0 .502.045.687.135.186.087.362.213.53.377l-.413.476a1.495 1.495 0 00-.382-.265.968.968 0 00-.427-.085.85.85 0 00-.656.287 1.005 1.005 0 00-.256.701c0 .275.085.509.256.701a.846.846 0 00.656.287c.168 0 .313-.03.436-.09s.253-.153.391-.278l.44.472a1.672 1.672 0 01-.557.404 1.82 1.82 0 01-.732.13zm1.911-.053l1.347-3.166h.638l1.347 3.166h-.723l-.287-.705h-1.329l-.287.705h-.705zm1.239-1.316h.835l-.418-1.02-.418 1.02z"/></symbol><symbol id="youtube" viewBox="0 0 32 32"><path fill="none" stroke="var(--color2, #fff)" d="M30.858 8.448v.002c.327 1.193.49 3.073.57 4.693a62.634 62.634 0 01.071 2.671v.285l-.001.167a64.953 64.953 0 01-.081 2.66c-.082 1.612-.246 3.488-.56 4.684a3.508 3.508 0 01-2.466 2.466c-.575.151-1.626.273-2.92.366-1.281.092-2.76.154-4.165.195a200.759 200.759 0 01-4.874.081l-.321.001h-.223l-.32-.001a186.378 186.378 0 01-4.864-.084 100.14 100.14 0 01-4.163-.202c-1.296-.097-2.35-.223-2.93-.38H3.61a3.51 3.51 0 01-2.468-2.467c-.314-1.182-.478-3.058-.56-4.674a68.47 68.47 0 01-.081-2.669L.5 16.074v-.115l.001-.167a64.953 64.953 0 01.081-2.66c.082-1.612.246-3.488.56-4.684a3.59 3.59 0 012.467-2.492c.575-.151 1.626-.272 2.919-.365a102.09 102.09 0 014.165-.195 200.759 200.759 0 014.874-.081l.321-.001h.224l.321.001a187.03 187.03 0 014.873.084c1.404.043 2.884.107 4.165.202 1.295.097 2.345.223 2.918.38l.002.001a3.51 3.51 0 012.468 2.468z"/><path fill="none" stroke="var(--color2, #fff)" d="M13.31 12.083l6.828 3.932-6.828 3.932v-7.865z"/></symbol><symbol id="pinterest" viewBox="0 0 32 32"><path fill="var(--color2, #fff)" d="M9.714 13.58c0-2.797 2.202-6.151 6.568-6.151 3.509 0 5.819 2.72 5.818 5.641 0 3.863-2.005 6.748-4.959 6.748-.993 0-1.926-.575-2.245-1.227 0 0-.534 2.268-.646 2.706-.378 1.472-1.456 2.944-1.638 3.194a.397.397 0 01-.021.028.12.12 0 01-.218-.056.847.847 0 00-.006-.045c-.049-.356-.299-2.188.034-3.696l1.182-5.366s-.293-.629-.293-1.558c0-1.459.789-2.549 1.772-2.549.836 0 1.239.672 1.239 1.478 0 .575-.218 1.331-.448 2.128-.13.451-.264.915-.364 1.366-.231 1.045.489 1.897 1.45 1.897 1.741 0 2.914-2.396 2.914-5.235 0-2.158-1.356-3.774-3.824-3.774-2.787 0-4.525 2.228-4.525 4.716 0 .858.237 1.463.607 1.931.17.215.194.302.132.549a26.99 26.99 0 00-.1.423l-.087.368c-.061.25-.25.338-.461.246-1.283-.562-1.882-2.068-1.882-3.762z"/><path fill="var(--color2, #fff)" d="M.571 6.286A5.714 5.714 0 016.285.572h19.429a5.714 5.714 0 015.714 5.714v19.429a5.714 5.714 0 01-5.714 5.714H6.285a5.714 5.714 0 01-5.714-5.714V6.286zm5.715-4.572a4.571 4.571 0 00-4.571 4.571v19.429a4.571 4.571 0 004.571 4.571h19.429a4.571 4.571 0 004.571-4.571V6.285a4.571 4.571 0 00-4.571-4.571H6.286z"/></symbol><symbol id="arrow-right" viewBox="0 0 108 32"><path d="M106.834 17.414a2 2 0 000-2.828L94.106 1.858a2 2 0 10-2.828 2.828L102.592 16 91.278 27.314a2 2 0 102.828 2.828l12.728-12.728zM1.144 18H105.42v-4H1.144v4z"/></symbol><symbol id="instagram" viewBox="0 0 32 32"><path fill="none" stroke="var(--color2, #fff)" stroke-width="1.143" d="M6.476 1.334h19.048a5.144 5.144 0 015.143 5.143v19.048a5.144 5.144 0 01-5.143 5.143H6.476a5.144 5.144 0 01-5.143-5.143V6.477a5.144 5.144 0 015.143-5.143z"/><path fill="none" stroke="var(--color2, #fff)" stroke-width="1.143" d="M9.46 16.508a7.048 7.048 0 1014.096 0 7.048 7.048 0 00-14.096 0zm17.143-8.634a1.46 1.46 0 10-2.92 0 1.46 1.46 0 002.92 0z"/></symbol><symbol id="facebook" viewBox="0 0 32 32"><path fill="none" stroke="var(--color2, #fff)" stroke-width="1.143" d="M24.988 14.536h-4.845v-2.488h5.417v-6.5h-5.988a5.935 5.935 0 00-5.929 5.929v3.06h-3.571v6.5h3.571v9.631H5.226a3.898 3.898 0 01-3.893-3.893V5.227a3.898 3.898 0 013.893-3.893h21.548a3.898 3.898 0 013.893 3.893v21.548a3.898 3.898 0 01-3.893 3.893h-6.631v-9.631h4.436l.08-.477 1.004-6.023h-.674z"/></symbol><symbol id="download" viewBox="0 0 41 32"><path fill="var(--color1, #f5f2f1)" d="M3.287 16.94v7.529a4.706 4.706 0 004.706 4.706h26.353a4.706 4.706 0 004.706-4.706V16.94h1.882v7.529a6.588 6.588 0 01-6.588 6.588H7.993a6.588 6.588 0 01-6.588-6.588V16.94h1.882z"/><path fill="var(--color1, #f5f2f1)" d="M27.825 17.263l-5.99 5.99a.942.942 0 01-1.331 0l-5.99-5.99a.94.94 0 111.331-1.331l4.383 4.383V-.001h1.882v20.316l4.383-4.383a.94.94 0 111.331 1.331z"/></symbol><symbol id="artjoker" viewBox="0 0 102 32"><path fill="var(--color1, #fff)" d="M102 32V0H0v32h102zM64.287 17.457V22.1h-3.549V4h3.549v9.591l2.855-3.214h4.551l-4.989 5.171 5.992 6.551H68.3l-4.013-4.643zm29.07-3.792c-.498-.234-1.105-.351-1.825-.351-1.989 0-2.983 1.557-2.983 4.669v4.093h-3.575V10.352h3.575v2.838c.291-1.022.758-1.791 1.401-2.311.642-.518 1.307-.777 1.992-.777.788 0 1.475.142 2.058.425l-.643 3.138zm-18.295 3.718c.086.635.424 1.122 1.015 1.454a3.866 3.866 0 001.943.503c1.165 0 2.039-.367 2.623-1.105l2.597 1.733c-1.098 1.591-2.924 2.383-5.478 2.383-1.765 0-3.251-.573-4.461-1.719-1.209-1.146-1.814-2.623-1.814-4.429 0-1.81.605-3.274 1.814-4.395 1.21-1.12 2.696-1.68 4.461-1.68 1.749 0 3.21.571 4.386 1.717 1.174 1.146 1.761 2.634 1.761 4.456 0 .32-.017.678-.052 1.082h-8.794zm2.724-4.195c.584 0 1.128.173 1.634.515.504.342.802.841.887 1.494h-5.195c.137-.669.47-1.171 1.002-1.507.532-.333 1.089-.502 1.672-.502zm-20.404 7.419c-1.21 1.129-2.688 1.696-4.437 1.696s-3.224-.567-4.423-1.696c-1.2-1.13-1.801-2.598-1.801-4.404 0-1.81.601-3.273 1.801-4.396 1.2-1.118 2.675-1.679 4.423-1.679s3.227.561 4.437 1.679c1.206 1.123 1.812 2.586 1.812 4.396 0 1.806-.606 3.274-1.812 4.404zm-6.354-6.315c.523-.501 1.162-.753 1.916-.753s1.398.252 1.929.753c.531.503.797 1.138.797 1.909 0 .802-.262 1.453-.784 1.945-.523.493-1.17.739-1.942.739-.755 0-1.393-.246-1.916-.739s-.784-1.143-.784-1.945c0-.771.261-1.406.784-1.909zM44.946 7.49c-.43.403-.952.602-1.569.602s-1.145-.199-1.581-.602c-.438-.401-.656-.886-.656-1.456 0-.567.218-1.049.656-1.444.436-.39.965-.589 1.581-.589s1.139.199 1.569.589c.428.395.643.877.643 1.444 0 .57-.215 1.055-.643 1.456zm.232 15.415c0 1.64-.353 2.899-1.055 3.776-.703.88-1.87 1.319-3.497 1.319h-2.187v-3.162h1.57c1.079 0 1.602-.619 1.568-1.858V10.378h3.601v12.528zm-8.308-.804h-3.549V5.885h3.549v4.493h2.744v3.025H36.87v8.698zm-5.458-8.409c-.497-.234-1.105-.351-1.825-.351-1.989 0-2.983 1.557-2.983 4.668v4.093H23.03V10.378h3.574v2.837c.29-1.022.759-1.791 1.401-2.31.643-.518 1.307-.777 1.993-.777.789 0 1.476.141 2.058.425l-.644 3.138zM21.168 22.1h-3.55v-1.331c-.343.504-.87.888-1.582 1.156-.711.268-1.349.403-1.914.403-1.613 0-3.036-.564-4.271-1.697C8.617 19.502 8 18.032 8 16.227c0-1.806.618-3.275 1.851-4.405 1.235-1.132 2.658-1.695 4.271-1.695.565 0 1.185.116 1.863.351a3.29 3.29 0 011.633 1.206v-1.306h3.55v11.721zm-6.456-8.66c-.788 0-1.486.264-2.095.79-.609.528-.914 1.192-.914 1.996 0 .803.305 1.469.914 1.994a3.105 3.105 0 002.095.792c.772 0 1.449-.256 2.033-.767.581-.509.874-1.181.874-2.019 0-.837-.292-1.511-.874-2.021a2.992 2.992 0 00-2.033-.766z"/></symbol><symbol id="chat" viewBox="0 0 41 32"><path fill="var(--color1, #6a737a)" d="M34.69 32l-2.598-4.457H14.694c-1.555 0-2.811-1.384-2.811-3.097V10.182c0-1.713 1.256-3.097 2.811-3.097h23.638c1.554 0 2.811 1.384 2.811 3.097v14.264c0 1.713-1.256 3.097-2.811 3.097h-1.065L34.69 32zM14.694 8.751c-.724 0-1.32.657-1.32 1.455V24.47c0 .798.596 1.454 1.32 1.454h18.208l1.789 3.05 1.768-3.05h1.874c.724 0 1.32-.657 1.32-1.454V10.183c0-.798-.596-1.455-1.32-1.455l-23.638.023zm19.911 6.616c0-.446-.341-.821-.745-.821H19.187c-.405 0-.745.375-.745.821s.341.821.745.821H33.86c.405 0 .745-.375.745-.821zm-2.449 4.34c0-.446-.341-.821-.745-.821H19.166c-.405 0-.745.375-.745.821s.341.821.745.821h12.245c.405 0 .745-.352.745-.821zm-21.317-.892H8.241l-1.789 3.05-1.768-3.05H2.81c-.724 0-1.32-.657-1.32-1.455V3.096c0-.798.596-1.455 1.32-1.455h23.638c.724 0 1.32.657 1.32 1.455v2.886h1.491V3.096c0-1.713-1.256-3.097-2.811-3.097H2.81c-1.555 0-2.811 1.384-2.811 3.097V17.36c0 1.713 1.256 3.097 2.811 3.097h1.065l2.598 4.457 2.598-4.457h1.789v-1.642h-.021z"/></symbol><symbol id="eye" viewBox="0 0 41 32"><path fill="var(--color1, #6a737a)" d="M20.279 30.122c-7.072 0-13.835-4.467-20.109-13.284a.922.922 0 01-.02-1.036C.492 15.279 8.667 2.982 20.455 2.7c7.222-.194 14.119 4.223 20.515 13.067a.92.92 0 01.028 1.037c-.342.532-8.52 13.032-20.317 13.314-.134.003-.268.005-.401.005zM1.998 16.297c5.913 8.114 12.193 12.154 18.632 12.001 9.558-.223 16.856-9.65 18.515-11.978-5.914-7.985-12.2-11.939-18.64-11.804-9.551.224-16.842 9.482-18.507 11.78z"/><path fill="var(--color1, #6a737a)" d="M20.572 23.883c-1.454 0-2.876-.438-4.085-1.26s-2.151-1.989-2.708-3.354-.702-2.869-.418-4.319c.284-1.45.984-2.782 2.012-3.827s2.338-1.757 3.764-2.046c1.426-.288 2.904-.14 4.248.425s2.492 1.524 3.299 2.753a7.561 7.561 0 011.239 4.153c-.002 1.982-.778 3.882-2.156 5.283s-3.247 2.19-5.196 2.192zm0-13.131c-1.1 0-2.176.332-3.091.953s-1.628 1.505-2.049 2.538c-.421 1.033-.531 2.171-.317 3.268s.744 2.105 1.522 2.896c.778.791 1.769 1.33 2.848 1.548s2.198.106 3.214-.322 1.885-1.153 2.497-2.083a5.718 5.718 0 00-.693-7.139 5.522 5.522 0 00-3.932-1.658z"/></symbol><symbol id="mouse" viewBox="0 0 18 32"><path fill="none" stroke="var(--color1, #fff)" stroke-width=".681" d="M8.851.34c4.7 0 8.511 3.81 8.511 8.511v14.298a8.511 8.511 0 11-17.022 0V8.851C.34 4.151 4.15.34 8.851.34z"/><path fill="var(--color1, #fff)" d="M9.191 7.489a1.02 1.02 0 011.021 1.021v2.723a1.02 1.02 0 11-2.042 0V8.51a1.02 1.02 0 011.021-1.021z"/></symbol><symbol id="arrow-left" viewBox="0 0 108 32"><path fill="var(--color1, #40474e)" d="M2.166 17.414a2 2 0 010-2.828L14.894 1.858a2 2 0 112.828 2.828L6.408 16l11.314 11.314a2 2 0 11-2.828 2.828L2.166 17.414zm105.69.586H3.58v-4h104.276v4z"/></symbol></defs></svg>